<?xml version="1.0" encoding="utf-8"?>
<!-- Generator: Adobe Illustrator 15.0.0, SVG Export Plug-In . SVG Version: 6.00 Build 0)  -->
<!DOCTYPE svg PUBLIC "-//W3C//DTD SVG 1.1//EN" "http://www.w3.org/Graphics/SVG/1.1/DTD/svg11.dtd">
<svg version="1.1" id="Layer_1" xmlns="http://www.w3.org/2000/svg" xmlns:xlink="http://www.w3.org/1999/xlink" x="0px" y="0px"
	 width="752.815px" height="220.589px" viewBox="52.953 107.636 752.815 220.589"
	 enable-background="new 52.953 107.636 752.815 220.589" xml:space="preserve">
<g id="logo">
	<path fill="#DE476F" d="M52.953,285.406c0.113-5.312,0.425-10.629,0.946-15.935s1.21-10.608,2.186-15.874
		c1.957-10.524,4.845-20.954,9.025-30.974c4.211-9.993,9.798-19.531,16.841-28.028c7.026-8.496,15.542-15.902,25.108-21.612
		c9.542-5.753,20.029-9.899,30.767-12.586c5.337-1.368,10.855-2.355,16.009-3.245c1.271-0.23,2.481-0.449,3.346-0.711
		c1.815-0.492,3.431-0.691,4.965-0.841c3.068-0.275,5.954-0.269,8.825-0.146c5.723,0.262,11.309,1.034,16.83,2.183
		c5.521,1.146,10.952,2.724,16.266,4.708c10.601,3.975,20.826,9.606,29.617,17.328c8.799,7.672,16.028,17.456,20.674,28.322
		l0.429,1.021l0.208,0.512l0.104,0.257l0.052,0.128l0.17,0.475l0.665,1.958c0.449,1.359,0.869,2.689,1.273,4.05
		c0.803,2.711,1.529,5.455,2.155,8.233c1.254,5.556,2.131,11.245,2.517,17.022c0.385,5.775,0.279,11.641-0.431,17.486
		c-0.727,5.842-2.055,11.66-4.044,17.285c-3.945,11.264-10.639,21.675-19.345,29.935c-17.457,16.589-42.293,24.329-65.99,21.178
		c-11.846-1.556-23.396-5.856-33.351-12.566c-4.978-3.348-9.557-7.265-13.624-11.616c-4.062-4.359-7.604-9.148-10.634-14.187
		l-0.291-0.483l-0.191-0.427c-2.654-5.906-4.838-12.169-6.15-18.782c-1.312-6.598-1.751-13.578-0.811-20.518
		c0.909-6.934,3.188-13.75,6.602-19.82c3.408-6.085,7.87-11.42,12.937-15.905c2.536-2.25,5.234-4.281,8.1-6.109
		c1.435-0.915,2.907-1.777,4.462-2.591c0.777-0.405,1.577-0.798,2.421-1.18l0.646-0.284l0.771-0.318l0.567-0.217l0.833-0.296
		c3.875-1.267,7.368-1.69,10.863-1.89c3.479-0.17,6.896-0.013,10.28,0.431c6.756,0.886,13.436,2.914,19.572,6.393
		c6.125,3.443,11.615,8.497,15.386,14.61l-0.554-0.75c2.095,2.556,3.489,5.34,4.439,8.172c0.939,2.838,1.43,5.75,1.479,8.688
		c0.051,2.935-0.336,5.901-1.223,8.79c-0.89,2.883-2.307,5.682-4.234,8.125c-1.926,2.441-4.347,4.493-6.969,5.982
		c-2.621,1.504-5.407,2.477-8.145,3.054c-1.369,0.29-2.731,0.482-4.077,0.604l-1.062,0.083l-1.08,0.042
		c-0.76,0.013-1.515-0.013-2.275-0.074c-3.049-0.232-6.116-1.141-8.783-2.563c-2.683-1.418-4.949-3.298-6.838-5.318
		c-1.892-2.028-3.429-4.208-4.738-6.427c-2.603-4.452-4.368-9.059-5.711-13.688c-1.334-4.632-2.25-9.293-2.874-13.976
		c-0.609-4.687-0.957-9.377-0.883-14.168l0.022-0.9c0-0.063,0.009,0.354,0.005,0.15l-0.001-0.053l-0.001-0.106l-0.002-0.211
		l-0.002-0.42l-0.004-1.769c0.006-1.217,0.043-2.377,0.096-3.562c0.11-2.356,0.307-4.698,0.578-7.021
		c0.544-4.648,1.379-9.229,2.429-13.73c2.118-9.003,5.01-17.74,8.58-26.149c3.549-8.418,7.629-16.567,12.164-24.431
		c4.604-7.821,9.581-15.41,15.157-22.516c-4.705,7.705-8.98,15.629-12.722,23.787c-3.796,8.124-7.13,16.441-9.885,24.916
		c-2.722,8.479-5.015,17.07-6.399,25.755c-0.697,4.338-1.18,8.691-1.383,13.026c-0.103,2.167-0.131,4.328-0.081,6.479
		c0.026,1.067,0.068,2.162,0.137,3.198l0.116,1.607l0.033,0.422l0.018,0.211l0.009,0.104l0.005,0.053l0.009,0.258l0.035,0.788
		c0.45,8.466,2.096,17.147,4.858,25.067c1.403,3.947,3.101,7.739,5.235,10.967c2.117,3.226,4.715,5.815,7.416,7.029
		c1.353,0.616,2.72,0.93,4.173,0.961c0.361,0.008,0.734-0.001,1.102-0.022l0.607-0.055l0.618-0.08
		c0.896-0.122,1.761-0.288,2.586-0.503c3.327-0.859,5.887-2.503,7.49-4.779c1.623-2.26,2.391-5.322,2.18-8.477
		c-0.104-1.564-0.432-3.139-0.97-4.559c-0.534-1.417-1.28-2.684-2.096-3.578l-0.19-0.211l-0.362-0.539
		c-2.632-3.911-6.253-7.036-10.554-9.269c-4.295-2.226-9.225-3.583-14.25-4.104c-2.51-0.259-5.052-0.299-7.501-0.106
		c-2.421,0.188-4.859,0.635-6.611,1.288l-0.682,0.276l-0.622,0.295c-0.501,0.245-1.027,0.521-1.558,0.818
		c-1.062,0.596-2.134,1.265-3.183,1.979c-2.102,1.43-4.108,3.046-5.984,4.771c-3.75,3.463-6.909,7.453-9.215,11.789
		c-2.312,4.336-3.759,9.019-4.296,13.875c-1.133,9.727,1.402,20.092,5.974,29.849l-0.481-0.909
		c4.968,8.056,11.444,14.988,19.131,20.113c7.678,5.13,16.55,8.404,25.752,9.584c9.196,1.186,18.706,0.376,27.594-2.433
		c8.892-2.78,17.133-7.536,23.869-13.844c6.766-6.285,11.97-14.156,15.146-22.893c3.195-8.735,4.408-18.278,3.949-27.909
		c-0.229-4.819-0.878-9.665-1.872-14.48c-0.495-2.407-1.083-4.808-1.742-7.197c-0.329-1.188-0.688-2.396-1.048-3.562l-0.581-1.822
		l-0.511-1.305c-3.451-8.77-8.887-16.665-15.886-23.169c-6.99-6.509-15.402-11.73-24.528-15.536
		c-9.11-3.774-18.955-6.406-28.725-7.341c-2.422-0.222-4.855-0.327-7.083-0.232c-1.108,0.051-2.143,0.152-2.9,0.312
		c-1.709,0.396-3.129,0.56-4.478,0.743c-5.345,0.661-10.32,1.312-15.328,2.339c-9.949,2.02-19.614,5.229-28.547,9.957
		c-8.916,4.729-17.114,10.88-24.121,18.311c-7.028,7.413-12.851,16.039-17.552,25.298c-4.751,9.247-8.372,19.146-11.107,29.314
		C56.216,264.424,54.328,274.87,52.953,285.406z"/>
</g>
<g>
	<path fill="#FFFFFF" d="M311.563,220.773h-9.091c-1.168,0-1.835,0.667-1.835,1.835v3.586h-9.592v-9.341
		c0-3.921,1.334-5.338,5.338-5.338h41.285c4.003,0,5.338,1.417,5.338,5.338v9.341h-9.591v-3.586c0-1.168-0.667-1.835-1.835-1.835
		h-9.092v49.959h-10.926V220.773L311.563,220.773z"/>
	<path fill="#FFFFFF" d="M347.265,239.038c0-1.251-0.667-1.835-1.835-1.835h-3.336v-9.008h10.092c3.92,0,5.588,1.751,5.588,5.588
		v19.601c0,5.172,1.334,8.675,6.589,8.675c7.674,0,11.928-6.756,11.928-14.347v-19.517h10.592v31.777
		c0,1.167,0.667,1.835,1.835,1.835h3.336v8.924h-9.758c-3.67,0-5.588-1.752-5.588-4.754v-1.168c0-1.001,0.083-1.918,0.083-1.918
		h-0.167c-2.002,4.42-7.34,8.841-14.68,8.841c-9.091,0-14.679-4.587-14.679-16.182V239.038L347.265,239.038z"/>
	<path fill="#FFFFFF" d="M400.647,239.038c0-1.251-0.667-1.835-1.834-1.835h-3.336v-9.008h9.758c3.753,0,5.588,1.751,5.588,4.754
		v1.251c0,0.918-0.083,1.835-0.083,1.835h0.167c2.002-4.17,7.089-8.841,13.763-8.841c6.422,0,10.592,3.003,12.427,8.758h0.167
		c2.252-4.588,7.757-8.758,14.513-8.758c8.841,0,13.929,5.004,13.929,16.181v16.599c0,1.167,0.667,1.835,1.834,1.835h3.255v8.924
		h-10.011c-4.003,0-5.671-1.668-5.671-5.672v-19.685c0-4.837-0.917-8.507-5.839-8.507c-5.254,0-9.008,4.421-10.175,9.759
		c-0.501,1.668-0.667,3.419-0.667,5.421v18.684h-10.593v-25.355c0-4.587-0.667-8.507-5.756-8.507c-5.338,0-8.924,4.421-10.259,9.842
		c-0.417,1.668-0.667,3.42-0.667,5.338v18.684h-10.509L400.647,239.038L400.647,239.038z"/>
	<path fill="#FFFFFF" d="M478.969,222.357c0-1.251-0.667-1.835-1.835-1.835h-3.336v-9.007h10.092c3.92,0,5.672,1.751,5.672,5.671
		v12.344c0,2.085-0.167,3.587-0.167,3.587h0.167c0,0,3.753-5.922,12.761-5.922c11.51,0,18.85,9.091,18.85,22.269
		c0,13.513-8.256,22.271-19.517,22.271c-8.842,0-12.678-6.005-12.678-6.005h-0.167c0,0,0.167,1.167,0.167,2.835v2.169h-10.009
		V222.357z M499.82,262.808c5.756,0,10.676-4.754,10.676-13.179c0-8.09-4.336-13.345-10.592-13.345
		c-5.505,0-10.676,4.004-10.676,13.429C489.228,256.303,492.731,262.808,499.82,262.808z"/>
	<path fill="#FFFFFF" d="M529.933,222.357c0-1.251-0.667-1.835-1.834-1.835h-3.336v-9.007h10.092c3.92,0,5.671,1.751,5.671,5.671
		v42.787c0,1.167,0.667,1.835,1.835,1.835h3.253v8.924h-10.009c-4.004,0-5.672-1.668-5.672-5.672V222.357L529.933,222.357z"/>
	<path fill="#FFFFFF" d="M571.803,227.195c12.177,0,18.85,8.924,18.85,20.184c0,1.251-0.25,3.92-0.25,3.92h-29.357
		c0.834,7.508,6.338,11.428,12.761,11.428c6.839,0,11.927-4.754,11.927-4.754l4.42,7.34c0,0-6.505,6.422-17.098,6.422
		c-14.097,0-22.854-10.176-22.854-22.271C550.201,236.369,559.043,227.195,571.803,227.195z M579.81,243.959
		c-0.166-5.088-3.67-8.591-8.007-8.591c-5.421,0-9.258,3.253-10.425,8.591H579.81z"/>
	<path fill="#FFFFFF" d="M598.329,238.704c-0.418-1.251-1.084-1.501-2.336-1.501h-1.168v-9.008h7.257
		c3.504,0,5.172,1.084,6.006,4.337l6.256,23.604c0.584,2.252,0.834,4.504,0.834,4.504h0.166c0,0,0.334-2.252,1.002-4.504
		l7.84-27.773h9.341l7.923,27.773c0.668,2.252,0.918,4.504,0.918,4.504h0.167c0,0,0.25-2.252,0.834-4.504l6.173-23.604
		c0.834-3.253,2.502-4.337,6.005-4.337h7.256v9.008h-1.167c-1.251,0-1.835,0.25-2.335,1.501l-10.177,32.027h-11.927l-7.257-24.271
		c-0.666-2.252-1-4.588-1-4.588h-0.167c0,0-0.417,2.336-1.085,4.588l-7.172,24.271h-12.011L598.329,238.704z"/>
	<path fill="#FFFFFF" d="M687.076,227.195c12.178,0,18.851,8.924,18.851,20.184c0,1.251-0.25,3.92-0.25,3.92h-29.358
		c0.834,7.508,6.338,11.428,12.761,11.428c6.84,0,11.928-4.754,11.928-4.754l4.42,7.34c0,0-6.505,6.422-17.099,6.422
		c-14.096,0-22.853-10.176-22.853-22.271C665.475,236.369,674.316,227.195,687.076,227.195z M695.084,243.959
		c-0.166-5.088-3.671-8.591-8.008-8.591c-5.421,0-9.258,3.253-10.425,8.591H695.084z"/>
	<path fill="#FFFFFF" d="M733.536,227.195c12.178,0,18.851,8.924,18.851,20.184c0,1.251-0.251,3.92-0.251,3.92h-29.358
		c0.834,7.508,6.339,11.428,12.761,11.428c6.841,0,11.929-4.754,11.929-4.754l4.42,7.34c0,0-6.506,6.422-17.099,6.422
		c-14.096,0-22.853-10.176-22.853-22.271C711.935,236.369,720.776,227.195,733.536,227.195z M741.544,243.959
		c-0.167-5.088-3.671-8.591-8.008-8.591c-5.422,0-9.258,3.253-10.426,8.591H741.544z"/>
	<path fill="#FFFFFF" d="M777.743,227.195c9.259,0,12.262,5.171,12.262,5.171h0.167c0,0-0.084-1.084-0.084-2.502v-7.507
		c0-1.251-0.667-1.835-1.835-1.835h-3.337v-9.007h10.093c3.92,0,5.672,1.751,5.672,5.671v42.787c0,1.167,0.667,1.835,1.835,1.835
		h3.253v8.924h-9.759c-3.836,0-5.254-1.835-5.254-4.337c0-0.918,0-1.585,0-1.585h-0.167c0,0-3.503,6.923-13.263,6.923
		c-11.51,0-18.933-9.091-18.933-22.271C758.394,235.952,766.484,227.195,777.743,227.195z M790.339,249.38
		c0-6.589-3.42-13.095-10.511-13.095c-5.838,0-10.676,4.754-10.676,13.178c0,8.092,4.254,13.346,10.51,13.346
		C785.166,262.808,790.339,258.805,790.339,249.38z"/>
</g>
</svg>
