<?xml version="1.0" encoding="utf-8"?>
<!-- Generator: Adobe Illustrator 15.0.0, SVG Export Plug-In . SVG Version: 6.00 Build 0)  -->
<!DOCTYPE svg PUBLIC "-//W3C//DTD SVG 1.1//EN" "http://www.w3.org/Graphics/SVG/1.1/DTD/svg11.dtd">
<svg version="1.1" id="Layer_1" xmlns="http://www.w3.org/2000/svg" xmlns:xlink="http://www.w3.org/1999/xlink" x="0px" y="0px"
	 width="841.891px" height="595.279px" viewBox="0 0 841.891 595.279" enable-background="new 0 0 841.891 595.279"
	 xml:space="preserve">
<g id="logo">
	<path fill="#DE476F" d="M52.953,285.406c0.114-5.312,0.425-10.629,0.947-15.935c0.521-5.305,1.21-10.608,2.185-15.874
		c1.957-10.524,4.845-20.954,9.026-30.973c4.211-9.993,9.797-19.532,16.84-28.029c7.027-8.496,15.542-15.902,25.109-21.612
		c9.542-5.753,20.029-9.899,30.766-12.586c5.337-1.368,10.856-2.355,16.009-3.245c1.271-0.23,2.482-0.449,3.346-0.711
		c1.815-0.492,3.431-0.691,4.965-0.841c3.068-0.275,5.954-0.268,8.825-0.146c5.723,0.262,11.309,1.034,16.83,2.182
		c5.521,1.146,10.952,2.724,16.266,4.708c10.6,3.975,20.826,9.607,29.617,17.329c8.799,7.671,16.028,17.456,20.674,28.322
		l0.428,1.021l0.208,0.512l0.104,0.257l0.052,0.128l0.17,0.474l0.665,1.958c0.449,1.36,0.869,2.69,1.273,4.05
		c0.803,2.711,1.529,5.455,2.155,8.234c1.254,5.555,2.131,11.245,2.517,17.022c0.385,5.775,0.279,11.641-0.431,17.486
		c-0.726,5.842-2.054,11.661-4.044,17.286c-3.945,11.263-10.638,21.674-19.344,29.934c-17.457,16.589-42.293,24.329-65.991,21.178
		c-11.845-1.556-23.396-5.857-33.35-12.567c-4.978-3.347-9.557-7.264-13.624-11.616c-4.062-4.359-7.605-9.148-10.634-14.186
		l-0.291-0.484l-0.191-0.426c-2.655-5.907-4.838-12.169-6.151-18.783c-1.311-6.597-1.751-13.578-0.81-20.517
		c0.909-6.934,3.187-13.75,6.601-19.821c3.408-6.085,7.87-11.42,12.937-15.905c2.536-2.25,5.234-4.281,8.099-6.109
		c1.435-0.915,2.908-1.778,4.462-2.591c0.778-0.405,1.577-0.798,2.421-1.18l0.646-0.284l0.77-0.318l0.568-0.217l0.833-0.296
		c3.875-1.267,7.368-1.69,10.863-1.89c3.479-0.17,6.896-0.012,10.28,0.431c6.756,0.886,13.436,2.914,19.572,6.393
		c6.125,3.443,11.616,8.497,15.386,14.61l-0.554-0.75c2.095,2.556,3.49,5.34,4.44,8.172c0.939,2.838,1.43,5.75,1.478,8.688
		c0.051,2.935-0.336,5.902-1.222,8.79c-0.89,2.883-2.307,5.682-4.235,8.125c-1.925,2.442-4.346,4.493-6.968,5.983
		c-2.622,1.504-5.408,2.476-8.145,3.053c-1.369,0.29-2.731,0.483-4.077,0.604l-1.063,0.083l-1.08,0.042
		c-0.759,0.013-1.514-0.013-2.275-0.074c-3.049-0.233-6.116-1.141-8.783-2.564c-2.683-1.418-4.949-3.298-6.838-5.318
		c-1.892-2.028-3.429-4.208-4.738-6.427c-2.603-4.452-4.369-9.058-5.711-13.687c-1.334-4.632-2.25-9.293-2.874-13.976
		c-0.61-4.686-0.957-9.377-0.883-14.168l0.022-0.9c0-0.064,0.009,0.353,0.005,0.15l-0.001-0.053l-0.001-0.106l-0.002-0.211
		l-0.002-0.42l-0.004-1.769c0.006-1.216,0.043-2.376,0.096-3.562c0.11-2.356,0.307-4.698,0.578-7.022
		c0.544-4.648,1.379-9.228,2.429-13.73c2.118-9.003,5.01-17.74,8.58-26.149c3.549-8.418,7.629-16.568,12.164-24.431
		c4.604-7.821,9.581-15.41,15.157-22.516c-4.705,7.705-8.98,15.629-12.721,23.787c-3.796,8.124-7.13,16.442-9.885,24.916
		c-2.722,8.479-5.015,17.071-6.4,25.755c-0.697,4.338-1.179,8.692-1.382,13.027c-0.103,2.167-0.131,4.328-0.081,6.479
		c0.026,1.068,0.068,2.162,0.136,3.198l0.116,1.608l0.034,0.422l0.017,0.211l0.009,0.104l0.005,0.053l0.009,0.258l0.035,0.788
		c0.45,8.466,2.096,17.147,4.858,25.067c1.404,3.947,3.101,7.739,5.236,10.967c2.117,3.226,4.714,5.815,7.416,7.029
		c1.352,0.616,2.719,0.93,4.172,0.961c0.362,0.008,0.735-0.001,1.102-0.022l0.607-0.055l0.619-0.08
		c0.895-0.122,1.76-0.288,2.586-0.503c3.327-0.859,5.886-2.503,7.49-4.779c1.623-2.26,2.39-5.323,2.179-8.477
		c-0.104-1.564-0.431-3.138-0.969-4.558c-0.534-1.417-1.281-2.684-2.096-3.579l-0.19-0.21l-0.363-0.54
		c-2.632-3.911-6.253-7.036-10.553-9.268c-4.295-2.226-9.225-3.583-14.25-4.104c-2.51-0.258-5.052-0.298-7.501-0.106
		c-2.421,0.188-4.86,0.635-6.612,1.288l-0.681,0.276l-0.622,0.295c-0.501,0.245-1.028,0.521-1.558,0.819
		c-1.062,0.595-2.134,1.264-3.183,1.978c-2.101,1.43-4.108,3.046-5.984,4.771c-3.75,3.463-6.909,7.453-9.215,11.789
		c-2.311,4.336-3.759,9.018-4.296,13.875c-1.133,9.726,1.403,20.092,5.974,29.848l-0.482-0.909
		c4.968,8.056,11.445,14.989,19.131,20.114c7.678,5.129,16.55,8.404,25.752,9.583c9.196,1.186,18.706,0.376,27.594-2.432
		c8.892-2.78,17.133-7.536,23.869-13.844c6.766-6.285,11.97-14.156,15.147-22.892c3.195-8.736,4.408-18.279,3.949-27.91
		c-0.23-4.819-0.878-9.665-1.872-14.48c-0.495-2.407-1.083-4.808-1.742-7.197c-0.33-1.189-0.688-2.397-1.048-3.563l-0.581-1.822
		l-0.511-1.305c-3.451-8.769-8.887-16.665-15.886-23.169c-6.99-6.509-15.402-11.73-24.528-15.536
		c-9.111-3.774-18.955-6.406-28.725-7.341c-2.422-0.221-4.855-0.327-7.083-0.232c-1.108,0.051-2.142,0.152-2.9,0.311
		c-1.709,0.396-3.129,0.56-4.478,0.744c-5.344,0.661-10.32,1.312-15.328,2.338c-9.949,2.02-19.614,5.229-28.547,9.957
		c-8.916,4.729-17.114,10.88-24.121,18.311c-7.028,7.413-12.85,16.039-17.552,25.298c-4.751,9.247-8.372,19.146-11.107,29.314
		C56.216,264.424,54.328,274.87,52.953,285.406z"/>
</g>
<g>
	<path fill="#FFFFFF" d="M311.563,220.773h-9.091c-1.168,0-1.835,0.667-1.835,1.835v3.586h-9.592v-9.341
		c0-3.921,1.334-5.338,5.338-5.338h41.285c4.003,0,5.338,1.417,5.338,5.338v9.341h-9.591v-3.586c0-1.168-0.667-1.835-1.835-1.835
		h-9.091v49.959h-10.926V220.773z"/>
	<path fill="#FFFFFF" d="M347.265,239.038c0-1.251-0.667-1.835-1.835-1.835h-3.336v-9.008h10.092c3.92,0,5.588,1.751,5.588,5.588
		v19.601c0,5.171,1.334,8.674,6.589,8.674c7.673,0,11.927-6.756,11.927-14.346v-19.517h10.592v31.777
		c0,1.167,0.667,1.835,1.835,1.835h3.336v8.924h-9.758c-3.67,0-5.588-1.752-5.588-4.754v-1.168c0-1.001,0.083-1.918,0.083-1.918
		h-0.167c-2.002,4.42-7.34,8.841-14.679,8.841c-9.091,0-14.679-4.587-14.679-16.181V239.038z"/>
	<path fill="#FFFFFF" d="M400.647,239.038c0-1.251-0.667-1.835-1.834-1.835h-3.336v-9.008h9.758c3.753,0,5.588,1.751,5.588,4.754
		v1.251c0,0.918-0.083,1.835-0.083,1.835h0.167c2.002-4.17,7.089-8.841,13.762-8.841c6.422,0,10.592,3.003,12.427,8.758h0.167
		c2.252-4.588,7.757-8.758,14.513-8.758c8.841,0,13.929,5.004,13.929,16.181v16.598c0,1.167,0.667,1.835,1.834,1.835h3.254v8.924
		h-10.01c-4.003,0-5.671-1.668-5.671-5.672v-19.684c0-4.837-0.917-8.507-5.839-8.507c-5.254,0-9.008,4.421-10.175,9.759
		c-0.501,1.668-0.667,3.419-0.667,5.421v18.683h-10.593v-25.355c0-4.587-0.667-8.507-5.755-8.507c-5.338,0-8.924,4.421-10.259,9.842
		c-0.417,1.668-0.667,3.42-0.667,5.338v18.683h-10.509V239.038z"/>
	<path fill="#FFFFFF" d="M478.969,222.357c0-1.251-0.667-1.835-1.835-1.835h-3.336v-9.007h10.092c3.92,0,5.672,1.751,5.672,5.671
		v12.344c0,2.085-0.167,3.587-0.167,3.587h0.167c0,0,3.753-5.922,12.761-5.922c11.51,0,18.849,9.091,18.849,22.269
		c0,13.512-8.256,22.27-19.516,22.27c-8.842,0-12.678-6.005-12.678-6.005h-0.167c0,0,0.167,1.167,0.167,2.835v2.169h-10.009V222.357
		z M499.82,262.808c5.756,0,10.676-4.754,10.676-13.178c0-8.09-4.336-13.345-10.592-13.345c-5.505,0-10.676,4.004-10.676,13.429
		C489.228,256.303,492.731,262.808,499.82,262.808z"/>
	<path fill="#FFFFFF" d="M529.933,222.357c0-1.251-0.667-1.835-1.834-1.835h-3.336v-9.007h10.092c3.92,0,5.671,1.751,5.671,5.671
		v42.787c0,1.167,0.667,1.835,1.835,1.835h3.253v8.924h-10.009c-4.004,0-5.672-1.668-5.672-5.672V222.357z"/>
	<path fill="#FFFFFF" d="M571.803,227.195c12.177,0,18.85,8.924,18.85,20.184c0,1.251-0.25,3.92-0.25,3.92h-29.358
		c0.834,7.507,6.338,11.427,12.761,11.427c6.839,0,11.927-4.754,11.927-4.754l4.42,7.34c0,0-6.505,6.422-17.098,6.422
		c-14.096,0-22.853-10.176-22.853-22.27C550.202,236.369,559.043,227.195,571.803,227.195z M579.81,243.959
		c-0.166-5.088-3.67-8.591-8.007-8.591c-5.421,0-9.258,3.253-10.425,8.591H579.81z"/>
	<path fill="#FFFFFF" d="M598.33,238.704c-0.418-1.251-1.084-1.501-2.336-1.501h-1.168v-9.008h7.257
		c3.503,0,5.171,1.084,6.005,4.337l6.256,23.604c0.584,2.252,0.834,4.504,0.834,4.504h0.166c0,0,0.334-2.252,1.002-4.504
		l7.84-27.773h9.341l7.923,27.773c0.668,2.252,0.918,4.504,0.918,4.504h0.167c0,0,0.25-2.252,0.834-4.504l6.172-23.604
		c0.834-3.253,2.502-4.337,6.005-4.337h7.256v9.008h-1.167c-1.251,0-1.835,0.25-2.335,1.501l-10.176,32.027h-11.927l-7.257-24.271
		c-0.666-2.252-1-4.588-1-4.588h-0.167c0,0-0.417,2.336-1.085,4.588l-7.172,24.271h-12.011L598.33,238.704z"/>
	<path fill="#FFFFFF" d="M687.077,227.195c12.177,0,18.85,8.924,18.85,20.184c0,1.251-0.25,3.92-0.25,3.92h-29.358
		c0.834,7.507,6.338,11.427,12.761,11.427c6.839,0,11.927-4.754,11.927-4.754l4.42,7.34c0,0-6.505,6.422-17.098,6.422
		c-14.096,0-22.853-10.176-22.853-22.27C665.475,236.369,674.316,227.195,687.077,227.195z M695.084,243.959
		c-0.166-5.088-3.67-8.591-8.007-8.591c-5.421,0-9.258,3.253-10.425,8.591H695.084z"/>
	<path fill="#FFFFFF" d="M733.537,227.195c12.177,0,18.85,8.924,18.85,20.184c0,1.251-0.251,3.92-0.251,3.92h-29.358
		c0.834,7.507,6.339,11.427,12.761,11.427c6.84,0,11.928-4.754,11.928-4.754l4.42,7.34c0,0-6.506,6.422-17.098,6.422
		c-14.096,0-22.853-10.176-22.853-22.27C711.935,236.369,720.776,227.195,733.537,227.195z M741.544,243.959
		c-0.167-5.088-3.67-8.591-8.007-8.591c-5.422,0-9.258,3.253-10.426,8.591H741.544z"/>
	<path fill="#FFFFFF" d="M777.744,227.195c9.258,0,12.261,5.171,12.261,5.171h0.167c0,0-0.084-1.084-0.084-2.502v-7.507
		c0-1.251-0.667-1.835-1.835-1.835h-3.336v-9.007h10.092c3.92,0,5.672,1.751,5.672,5.671v42.787c0,1.167,0.667,1.835,1.835,1.835
		h3.253v8.924h-9.759c-3.836,0-5.254-1.835-5.254-4.337c0-0.918,0-1.585,0-1.585h-0.167c0,0-3.503,6.923-13.262,6.923
		c-11.51,0-18.933-9.091-18.933-22.27C758.394,235.952,766.484,227.195,777.744,227.195z M790.339,249.38
		c0-6.589-3.42-13.095-10.51-13.095c-5.838,0-10.676,4.754-10.676,13.178c0,8.091,4.254,13.345,10.51,13.345
		C785.167,262.808,790.339,258.805,790.339,249.38z"/>
</g>
</svg>
